<svg xmlns="http://www.w3.org/2000/svg" width="30.206" height="23.889" viewBox="0 0 30.206 23.889">
  <g id="upload." transform="translate(0.251 0.25)">
    <path id="Path_624" data-name="Path 624" d="M28.524,21.789V10.6a1.6,1.6,0,0,0-1.6-1.6H4.6A1.6,1.6,0,0,0,3,10.6V27.08a1.6,1.6,0,0,0,1.6,1.6h17.65l.581-3.536.827.825,4.871-2.7ZM4.6,10.064H26.929a.532.532,0,0,1,.532.532V23.264l-.532,1.391-2.166-2.129L20.8,18.172a1.064,1.064,0,0,0-.772-.4,1.041,1.041,0,0,0-.811.31l-2.925,2.925-2.882-3.77a1.064,1.064,0,0,0-1.7-.046L4.064,26.761V10.6A.532.532,0,0,1,4.6,10.064ZM20,27.611H4.745l7.813-9.74Zm2.139,0h-.8l-4.394-5.748,3.046-3,3.879,4.264,1.773,2.61v-.709l.158.709-1.533-.155-.4-.927-1.729,2.957Zm.532-11.167a2.659,2.659,0,1,0-2.659-2.659A2.659,2.659,0,0,0,22.675,16.445Zm0-4.254a1.6,1.6,0,1,1-1.6,1.6A1.6,1.6,0,0,1,22.675,12.191Z" transform="translate(-3.001 -9)" fill="#c0c1c1" stroke="#c0c1c1" stroke-width="0.5"/>
    <path id="Path_623" data-name="Path 623" d="M24.4,1H19.361A3.091,3.091,0,0,0,16,4.361V9.4a3.091,3.091,0,0,0,3.361,3.361H24.4A3.091,3.091,0,0,0,27.763,9.4V4.361A3.175,3.175,0,0,0,24.4,1ZM25.41,5.2,21.377,9.906a.873.873,0,0,1-.672.336,1.274,1.274,0,0,1-.672-.336L18.184,8.058a.832.832,0,0,1,1.176-1.176l1.176,1.176L23.9,4.193a1.035,1.035,0,0,1,1.176-.168c.672.168.672.672.336,1.176Z" transform="translate(2.193 10.877)" fill="#c0c1c1"/>
  </g>
</svg>
