<svg xmlns="http://www.w3.org/2000/svg" width="29.961" height="23.64" viewBox="0 0 29.961 23.64">
  <g id="upload." transform="translate(0.006)">
    <path id="Path_1078" data-name="Path 1078" d="M24.4,1H19.361A3.091,3.091,0,0,0,16,4.361V9.4a3.091,3.091,0,0,0,3.361,3.361H24.4A3.091,3.091,0,0,0,27.763,9.4V4.361A3.175,3.175,0,0,0,24.4,1ZM25.41,5.2,21.377,9.906a.873.873,0,0,1-.672.336,1.274,1.274,0,0,1-.672-.336L18.184,8.058a.832.832,0,0,1,1.176-1.176l1.176,1.176L23.9,4.193a1.035,1.035,0,0,1,1.176-.168c.672.168.672.672.336,1.176Z" transform="translate(2.193 10.877)" fill="#c0c1c1"/>
    <path id="Subtraction_10" data-name="Subtraction 10" d="M20556.8,13297.119h-15.611a1.6,1.6,0,0,1-1.6-1.595l0-16.483a1.6,1.6,0,0,1,1.6-1.594h22.332a1.6,1.6,0,0,1,1.6,1.595v9.281h-2.066v-8.28a.532.532,0,0,0-.531-.532h-20.334a.53.53,0,0,0-.529.531l0,13.915,6.654-8.318a1.068,1.068,0,0,1,.828-.4h.033a1.078,1.078,0,0,1,.834.444l2.883,3.768,2.928-2.922a1.011,1.011,0,0,1,.74-.311h.07a1.057,1.057,0,0,1,.77.4l1.7,1.867a3.073,3.073,0,0,0-2.309,3.2v5.043a3.553,3.553,0,0,0,.016.392Zm2.467-11.228a2.659,2.659,0,1,1,2.658-2.659,2.658,2.658,0,0,1-2.658,2.659Z" transform="translate(-20539.596 -13277.446)" fill="#c0c1c1"/>
  </g>
</svg>
